<svg width="24" height="24" viewBox="0 0 24 24" fill="none" xmlns="http://www.w3.org/2000/svg">
<path fill-rule="evenodd" clip-rule="evenodd" d="M3.89999 15.375C3.8999 15.1977 3.93484 15.0222 4.0028 14.8585C4.07076 14.6948 4.1704 14.5461 4.29599 14.421L11.046 7.671C11.1714 7.5456 11.3202 7.44612 11.484 7.37824C11.6478 7.31037 11.8234 7.27544 12.0007 7.27544C12.1781 7.27544 12.3537 7.31037 12.5175 7.37825C12.6813 7.44612 12.8301 7.5456 12.9555 7.671L19.7055 14.421C19.8352 14.5454 19.9388 14.6944 20.0102 14.8594C20.0815 15.0243 20.1193 15.2018 20.1211 15.3815C20.123 15.5612 20.0889 15.7395 20.021 15.9059C19.953 16.0723 19.8525 16.2234 19.7254 16.3504C19.5983 16.4775 19.4471 16.5778 19.2806 16.6456C19.1142 16.7135 18.9359 16.7474 18.7562 16.7454C18.5765 16.7434 18.399 16.7055 18.2341 16.634C18.0692 16.5625 17.9203 16.4588 17.796 16.329L12 10.5345L6.20549 16.329C6.01678 16.5181 5.77621 16.6469 5.51423 16.6992C5.25226 16.7515 4.98066 16.7249 4.73382 16.6227C4.48698 16.5206 4.27599 16.3475 4.12756 16.1254C3.97913 15.9033 3.89993 15.6421 3.89999 15.375Z" fill="#6F7070"/>
</svg>
